
            <svg data-logo="logo" xmlns="http://www.w3.org/2000/svg" viewBox="0 0 225 41">
                <g id="logogram" transform="translate(0, 0)"><path fill-rule="evenodd" clip-rule="evenodd" d="M19.3333 7.48892C19.3333 6.58608 19.1232 5.69564 18.7193 4.88811C18.3703 4.19008 18.1654 3.42896 18.1168 2.65006L18 0.782715L17.8833 2.64999C17.8346 3.4289 17.6297 4.19005 17.2807 4.88808C16.8769 5.69563 16.6667 6.5861 16.6667 7.48896V34.0765C16.6667 34.9793 16.8769 35.8698 17.2807 36.6774C17.6297 37.3754 17.8346 38.1365 17.8833 38.9155L18 40.7827L18.1168 38.9154C18.1654 38.1365 18.3703 37.3754 18.7193 36.6773C19.1232 35.8698 19.3333 34.9794 19.3333 34.0765V7.48892ZM12.0527 7.55477C12.4565 8.36231 12.6667 9.2528 12.6667 10.1556V31.4098C12.6667 32.3127 12.4565 33.2031 12.0527 34.0107C11.7037 34.7087 11.4987 35.4699 11.45 36.2487L11.3333 38.116L11.2167 36.2487C11.1679 35.4699 10.963 34.7087 10.614 34.0107C10.2102 33.2031 10 32.3127 10 31.4098V10.1556C10 9.2528 10.2102 8.36231 10.614 7.55477C10.963 6.85674 11.1679 6.09561 11.2167 5.3167L11.3333 3.44939L11.45 5.3167C11.4987 6.09561 11.7037 6.85674 12.0527 7.55477ZM9.33333 12.8223C9.33333 11.9194 9.12317 11.029 8.71933 10.2215C8.37033 9.52338 8.16539 8.76226 8.11671 7.98335L8 6.11604L7.88329 7.98335C7.83461 8.76226 7.62966 9.52338 7.28064 10.2215C6.87687 11.029 6.66667 11.9194 6.66667 12.8223V28.7431C6.66667 29.646 6.87687 30.5365 7.28064 31.344C7.62966 32.042 7.83461 32.8031 7.88329 33.582L8 35.4494L8.11671 33.582C8.16539 32.8031 8.37033 32.042 8.71933 31.344C9.12317 30.5365 9.33333 29.646 9.33333 28.7431V12.8223ZM5.38602 15.5547C5.78979 16.3623 6 17.2527 6 18.1556V23.4098C6 24.3126 5.78979 25.2031 5.38602 26.0106C5.03701 26.7087 4.83206 27.4698 4.78337 28.2487L4.66667 30.116L4.54996 28.2487C4.50127 27.4698 4.29633 26.7087 3.94731 26.0106C3.54354 25.2031 3.33333 24.3126 3.33333 23.4098V18.1556C3.33333 17.2527 3.54354 16.3623 3.94731 15.5547C4.29633 14.8567 4.50127 14.0955 4.54996 13.3167L4.66667 11.4494L4.78337 13.3167C4.83206 14.0955 5.03701 14.8567 5.38602 15.5547ZM2.66653 20.7827L2.66667 20.8223V20.7431L2.66653 20.7827ZM0 20.8223L0.000134518 20.7827C0.00618271 21.672 0.216106 22.5483 0.613976 23.344C0.962992 24.042 1.16794 24.8031 1.21662 25.582L1.33333 27.4494L1.45004 25.582C1.49872 24.8031 1.70367 24.042 2.05269 23.344C2.45056 22.5483 2.66048 21.672 2.66653 20.7827C2.66048 19.8934 2.45056 19.0171 2.05269 18.2215C1.70367 17.5234 1.49872 16.7623 1.45004 15.9834L1.33333 14.116L1.21662 15.9834C1.16794 16.7623 0.962992 17.5234 0.613976 18.2215C0.216106 19.0171 0.00618272 19.8934 0.000134518 20.7827L0 20.7431V20.8223ZM15.386 4.8881C15.7898 5.69563 16 6.58609 16 7.48894V34.0765C16 34.9794 15.7898 35.8698 15.386 36.6773C15.037 37.3754 14.8321 38.1365 14.7833 38.9154L14.6667 40.7827L14.55 38.9154C14.5012 38.1365 14.2963 37.3754 13.9473 36.6773C13.5435 35.8698 13.3333 34.9794 13.3333 34.0765V7.48894C13.3333 6.58609 13.5435 5.69563 13.9473 4.8881C14.2963 4.19006 14.5012 3.42892 14.55 2.65002L14.6667 0.782715L14.7833 2.65002C14.8321 3.42892 15.037 4.19006 15.386 4.8881ZM22.0527 4.8881C22.4565 5.69563 22.6667 6.58609 22.6667 7.48894V34.0765C22.6667 34.9794 22.4565 35.8698 22.0527 36.6773C21.7037 37.3754 21.4987 38.1365 21.45 38.9154L21.3333 40.7827L21.2167 38.9154C21.1679 38.1365 20.963 37.3754 20.614 36.6773C20.2102 35.8698 20 34.9794 20 34.0765V7.48894C20 6.58609 20.2102 5.69563 20.614 4.8881C20.963 4.19006 21.1679 3.42892 21.2167 2.65002L21.3333 0.782715L21.45 2.65002C21.4987 3.42892 21.7037 4.19006 22.0527 4.8881ZM26 10.1556C26 9.2528 25.7898 8.36231 25.386 7.55477C25.037 6.85674 24.8321 6.09561 24.7833 5.3167L24.6667 3.44939L24.55 5.3167C24.5012 6.09561 24.2963 6.85674 23.9473 7.55477C23.5435 8.36231 23.3333 9.2528 23.3333 10.1556V31.4098C23.3333 32.3127 23.5435 33.2031 23.9473 34.0107C24.2963 34.7087 24.5012 35.4699 24.55 36.2487L24.6667 38.116L24.7833 36.2487C24.8321 35.4699 25.037 34.7087 25.386 34.0107C25.7898 33.2031 26 32.3127 26 31.4098V10.1556ZM28.7193 10.2215C29.1232 11.029 29.3333 11.9194 29.3333 12.8223V28.7431C29.3333 29.646 29.1232 30.5365 28.7193 31.344C28.3703 32.042 28.1654 32.8031 28.1167 33.582L28 35.4494L27.8833 33.582C27.8346 32.8031 27.6297 32.042 27.2807 31.344C26.8769 30.5365 26.6667 29.646 26.6667 28.7431V12.8223C26.6667 11.9194 26.8769 11.029 27.2807 10.2215C27.6297 9.52338 27.8346 8.76226 27.8833 7.98335L28 6.11604L28.1167 7.98335C28.1654 8.76226 28.3703 9.52338 28.7193 10.2215ZM32.6667 18.1556C32.6667 17.2527 32.4565 16.3623 32.0527 15.5547C31.7037 14.8567 31.4988 14.0955 31.45 13.3167L31.3333 11.4494L31.2167 13.3167C31.1679 14.0955 30.963 14.8567 30.614 15.5547C30.2103 16.3623 30 17.2527 30 18.1556V23.4098C30 24.3126 30.2103 25.2031 30.614 26.0106C30.963 26.7087 31.1679 27.4698 31.2167 28.2487L31.3333 30.116L31.45 28.2487C31.4988 27.4698 31.7037 26.7087 32.0527 26.0106C32.4565 25.2031 32.6667 24.3126 32.6667 23.4098V18.1556ZM35.9998 20.7827C35.9999 20.7959 36 20.809 36 20.8223V20.7431C36 20.7564 35.9999 20.7695 35.9998 20.7827ZM33.3335 20.7827C33.3395 21.672 33.5494 22.5483 33.9473 23.344C34.2963 24.042 34.5012 24.8031 34.55 25.582L34.6667 27.4494L34.7833 25.582C34.8321 24.8031 35.037 24.042 35.386 23.344C35.7839 22.5483 35.9938 21.672 35.9998 20.7827C35.9938 19.8934 35.7839 19.0171 35.386 18.2215C35.037 17.5234 34.8321 16.7623 34.7833 15.9834L34.6667 14.116L34.55 15.9834C34.5012 16.7623 34.2963 17.5234 33.9473 18.2215C33.5494 19.0171 33.3395 19.8934 33.3335 20.7827ZM33.3335 20.7827C33.3334 20.7695 33.3333 20.7564 33.3333 20.7431V20.8223C33.3333 20.809 33.3334 20.7959 33.3335 20.7827Z" fill="#0A6E7B"/></g>
                <g id="logotype" transform="translate(41, 10.5)"><path fill="#107e5a" d="M15.05 20.40L15.05 20.40L10.14 20.40Q9.38 20.40 9.27 19.66L9.27 19.66L5.53-1.37Q5.42-2.11 6.26-2.11L6.26-2.11L9.90-2.11Q10.71-2.11 10.74-1.37L10.74-1.37L12.77 15.88L13.02 15.88L16.38-1.48Q16.48-2.11 17.11-2.11L17.11-2.11L21.03-2.11Q21.70-2.11 21.80-1.51L21.80-1.51L25.23 15.88L25.51 15.88L27.51-1.34Q27.54-2.11 28.35-2.11L28.35-2.11L31.99-2.11Q32.83-2.11 32.72-1.34L32.72-1.34L28.94 19.66Q28.84 20.40 28.14 20.40L28.14 20.40L23.20 20.40Q22.47 20.40 22.36 19.66L22.36 19.66L19.21 3.25L19.07 3.25L15.89 19.66Q15.75 20.40 15.05 20.40ZM47.04 20.40L47.04 20.40L46.20 20.40Q43.43 20.40 41.93 18.93Q40.42 17.46 40.42 14.69L40.42 14.69L40.42 8.25Q40.42 5.49 41.93 4.02Q43.43 2.55 46.20 2.55L46.20 2.55L54.28 2.55Q55.05 2.55 55.05 3.28L55.05 3.28L55.05 19.66Q55.05 20.40 54.28 20.40L54.28 20.40L51.34 20.40Q50.61 20.40 50.61 19.66L50.61 19.66L50.61 18.51L50.47 18.51Q50.08 19.45 49.10 19.93Q48.12 20.40 47.04 20.40ZM50.61 13.89L50.61 13.89L50.61 6.78Q50.61 6.40 50.19 6.40L50.19 6.40L46.90 6.40Q45.78 6.40 45.32 6.87Q44.87 7.34 44.87 8.46L44.87 8.46L44.87 14.48Q44.87 15.60 45.32 16.08Q45.78 16.55 46.90 16.55L46.90 16.55L48.19 16.55Q50.61 16.55 50.61 13.89ZM63.73 2.55L63.73 2.55L66.81 2.55Q67.51 2.55 67.65 3.28L67.65 3.28L70.66 16.44L70.91 16.44L73.85 3.28Q73.99 2.55 74.72 2.55L74.72 2.55L77.80 2.55Q78.54 2.55 78.33 3.28L78.33 3.28L73.92 19.63Q73.78 20.40 72.97 20.40L72.97 20.40L68.53 20.40Q67.79 20.40 67.58 19.63L67.58 19.63L63.21 3.28Q63.00 2.55 63.73 2.55ZM99.64 20.40L99.64 20.40L91.91 20.40Q89.14 20.40 87.64 18.93Q86.13 17.46 86.13 14.69L86.13 14.69L86.13 8.25Q86.13 5.49 87.64 4.02Q89.14 2.55 91.91 2.55L91.91 2.55L94.67 2.55Q97.44 2.55 98.94 4.02Q100.45 5.49 100.45 8.25L100.45 8.25L100.45 12.70Q100.45 13.43 99.71 13.43L99.71 13.43L90.93 13.43Q90.51 13.43 90.51 13.82L90.51 13.82L90.51 14.59Q90.51 15.67 90.98 16.15Q91.45 16.62 92.57 16.62L92.57 16.62L99.64 16.62Q100.38 16.62 100.38 17.39L100.38 17.39L100.38 19.70Q100.38 20.08 100.22 20.24Q100.06 20.40 99.64 20.40ZM90.93 10.46L90.93 10.46L95.69 10.46Q96.07 10.46 96.07 10.07L96.07 10.07L96.07 8.39Q96.07 7.27 95.62 6.82Q95.16 6.36 94.04 6.36L94.04 6.36L92.57 6.36Q91.45 6.36 91.00 6.82Q90.54 7.27 90.54 8.39L90.54 8.39L90.54 10.07Q90.54 10.46 90.93 10.46ZM121.97 20.40L121.97 20.40L110.46 20.40Q109.72 20.40 109.72 19.66L109.72 19.66L109.72-1.37Q109.72-2.11 110.46-2.11L110.46-2.11L113.43-2.11Q114.17-2.11 114.17-1.37L114.17-1.37L114.17 16.13Q114.17 16.51 114.59 16.51L114.59 16.51L121.97 16.51Q122.67 16.51 122.67 17.28L122.67 17.28L122.67 19.66Q122.67 20.40 121.97 20.40ZM130.86-0.46L130.86-0.46L130.86-3.51Q130.86-4.21 131.56-4.21L131.56-4.21L134.61-4.21Q135.31-4.21 135.31-3.54L135.31-3.54L135.31-0.46Q135.31 0.24 134.61 0.24L134.61 0.24L131.56 0.24Q130.86 0.24 130.86-0.46ZM130.86 19.66L130.86 19.66L130.86 3.28Q130.86 2.55 131.56 2.55L131.56 2.55L134.57 2.55Q135.31 2.55 135.31 3.28L135.31 3.28L135.31 19.66Q135.31 20.12 135.15 20.26Q134.99 20.40 134.61 20.40L134.61 20.40L131.60 20.40Q130.86 20.40 130.86 19.66ZM148.64 20.40L148.64 20.40L145.67 20.40Q144.93 20.40 144.93 19.66L144.93 19.66L144.93 3.28Q144.93 2.55 145.67 2.55L145.67 2.55L148.64 2.55Q149.38 2.55 149.38 3.28L149.38 3.28L149.38 4.44L149.52 4.44Q150.29 2.55 152.95 2.55L152.95 2.55L154.07 2.55Q159.56 2.55 159.56 8.25L159.56 8.25L159.56 19.66Q159.56 20.40 158.79 20.40L158.79 20.40L155.85 20.40Q155.12 20.40 155.12 19.66L155.12 19.66L155.12 8.46Q155.12 7.34 154.64 6.87Q154.17 6.40 153.05 6.40L153.05 6.40L151.79 6.40Q149.38 6.40 149.38 9.06L149.38 9.06L149.38 19.66Q149.38 20.40 148.64 20.40ZM179.06 2.55L179.06 2.55L182.45 2.55Q182.87 2.55 183.01 2.79Q183.15 3.04 182.91 3.42L182.91 3.42L178.25 11.09L178.25 11.23L183.12 19.52Q183.33 19.88 183.15 20.14Q182.98 20.40 182.52 20.40L182.52 20.40L179.51 20.40Q178.92 20.40 178.65 20.26Q178.39 20.12 178.11 19.66L178.11 19.66L173.67 11.86Q173.35 11.30 173.67 10.70L173.67 10.70L177.87 3.25Q178.25 2.55 179.06 2.55ZM172.55 20.40L172.55 20.40L169.57 20.40Q168.84 20.40 168.84 19.66L168.84 19.66L168.84-3.47Q168.84-4.21 169.57-4.21L169.57-4.21L172.55-4.21Q173.28-4.21 173.28-3.47L173.28-3.47L173.28 19.66Q173.28 20.40 172.55 20.40Z"/></g>
                
            </svg>
        